<svg width="800" height="800" viewBox="0 0 800 800" fill="none" xmlns="http://www.w3.org/2000/svg">
<g clip-path="url(#clip0_4032_590)">
<rect width="800" height="800" fill="#040918"/>
<path d="M335 500.2V97.7H366.5V479.9C366.5 517.7 360.667 551.067 349 580C337.333 608.933 323.8 631.333 308.4 647.2C293 663.067 273.167 679.633 248.9 696.9L234.2 675.9C301.4 626.9 335 568.333 335 500.2Z" fill="#F2F8FE"/>
<path d="M335 684V232.5C370 228.767 406.867 226.9 445.6 226.9C484.8 226.9 517.933 237.4 545 258.4C572.067 278.933 585.6 310.2 585.6 352.2C585.6 394.2 567.167 428.733 530.3 455.8C493.433 482.4 449.8 495.7 399.4 495.7C397.067 495.7 394.5 495.7 391.7 495.7V473.3C393.567 473.3 395.2 473.3 396.6 473.3C438.133 473.3 474.3 462.333 505.1 440.4C535.9 418.467 551.3 390 551.3 355C551.3 320 540.333 294.567 518.4 278.7C496.933 262.833 468.467 254.9 433 254.9C414.333 254.9 392.4 255.833 367.2 257.7V684H335Z" fill="#F2F8FE"/>
<path d="M335 684V232.5C370 228.767 406.867 226.9 445.6 226.9C484.8 226.9 517.933 237.4 545 258.4C572.067 278.933 585.6 310.2 585.6 352.2C585.6 394.2 567.167 428.733 530.3 455.8C493.433 482.4 449.8 495.7 399.4 495.7C397.067 495.7 394.5 495.7 391.7 495.7V473.3C393.567 473.3 395.2 473.3 396.6 473.3C438.133 473.3 474.3 462.333 505.1 440.4C535.9 418.467 551.3 390 551.3 355C551.3 320 540.333 294.567 518.4 278.7C496.933 262.833 468.467 254.9 433 254.9C414.333 254.9 392.4 255.833 367.2 257.7V684H335Z" fill="#F2F8FE"/>
</g>
<defs>
<clipPath id="clip0_4032_590">
<rect width="800" height="800" fill="white"/>
</clipPath>
</defs>
</svg>
